<svg width="90" height="90" viewBox="0 0 90 90" fill="none" xmlns="http://www.w3.org/2000/svg">
<rect width="90" height="90" fill="#E5E5E5"/>
<g clip-path="url(#clip0)">
<rect width="1980" height="9546" transform="translate(-164 -3705)" fill="#F8F8F8"/>
<rect x="-164" y="-312" width="1978" height="1080" fill="white"/>
<circle cx="45" cy="45" r="44.3552" fill="white" stroke="#E5EAF4" stroke-width="1.28968"/>
<path d="M45.0002 67.5C32.5738 67.5 22.5002 57.4264 22.5002 45C22.5002 32.5736 32.5738 22.5 45.0002 22.5C57.4267 22.5 67.5002 32.5736 67.5002 45C67.5002 57.4264 57.4267 67.5 45.0002 67.5Z" fill="#3B5AFB"/>
<path fill-rule="evenodd" clip-rule="evenodd" d="M49.7462 43.9861C50.6352 42.6731 50.7261 40.9765 49.9826 39.576C49.239 38.1756 47.7826 37.3004 46.197 37.3013V36.2299C46.197 35.6381 45.7173 35.1584 45.1256 35.1584C44.5339 35.1584 44.0542 35.6381 44.0542 36.2299V37.3013H41.9113V36.2299C41.9113 35.6381 41.4316 35.1584 40.8399 35.1584C40.2482 35.1584 39.7685 35.6381 39.7685 36.2299V37.3013H38.697C38.1053 37.3013 37.6256 37.781 37.6256 38.3727C37.6256 38.9645 38.1053 39.4442 38.697 39.4442H39.7685V50.1584H38.697C38.1053 50.1584 37.6256 50.6381 37.6256 51.2299C37.6256 51.8216 38.1053 52.3013 38.697 52.3013H39.7685V53.3727C39.7685 53.9645 40.2482 54.4442 40.8399 54.4442C41.4316 54.4442 41.9113 53.9645 41.9113 53.3727V52.3013H44.0542V53.3727C44.0542 53.9645 44.5339 54.4442 45.1256 54.4442C45.7173 54.4442 46.197 53.9645 46.197 53.3727V52.3013H48.3399C50.4298 52.3067 52.2172 50.8002 52.5658 48.7395C52.9143 46.6789 51.7217 44.6683 49.7462 43.9862V43.9861ZM41.9112 39.444H46.197C47.3804 39.444 48.3398 40.4034 48.3398 41.5869C48.3398 42.7704 47.3804 43.7298 46.197 43.7298H41.9112V39.444ZM41.9112 50.1584H48.3398C49.5233 50.1584 50.4827 49.199 50.4827 48.0155C50.4827 46.8321 49.5233 45.8727 48.3398 45.8727H41.9112V50.1584Z" fill="white"/>
</g>
<defs>
<clipPath id="clip0">
<rect width="1980" height="9546" fill="white" transform="translate(-164 -3705)"/>
</clipPath>
</defs>
</svg>
