<svg width="91" height="91" viewBox="0 0 91 91" fill="none" xmlns="http://www.w3.org/2000/svg">
<rect width="91" height="91" fill="#E5E5E5"/>
<g clip-path="url(#clip0)">
<rect width="1980" height="9546" transform="translate(-819 -4064)" fill="#F8F8F8"/>
<rect x="-819" y="-671" width="1978" height="1080" fill="white"/>
<circle cx="45.2542" cy="45.7937" r="44.3552" fill="white" stroke="#E5EAF4" stroke-width="1.28968"/>
<path d="M58.0387 62.8824C54.4806 65.505 50.0748 67.0563 45.3045 67.0563C42.8518 67.0563 40.4955 66.6462 38.3012 65.8912C38.2637 65.8411 38.2209 65.7937 38.1729 65.7498C36.3497 64.0824 36.5018 60.283 38.8062 58.6157C43.8575 54.9611 43.3557 48.9791 37.2524 47.2596C32.5657 45.9392 30.8053 42.5119 33.0791 40.3776C33.6743 39.8223 33.9738 39.541 34.2644 39.2574C37.6477 35.9555 37.3288 32.2875 33.2922 28.1956C36.7168 25.8828 40.8518 24.5312 45.3045 24.5312C48.8008 24.5312 52.1012 25.3645 55.0156 26.8422C50.8924 27.44 47.3877 28.7684 46.4225 30.5714C45.1097 33.0235 45.9679 35.5348 48.8506 36.635C52.4704 38.0164 52.9964 38.7415 52.8547 40.2892C52.7074 41.8982 51.5681 42.9682 48.5239 42.9682C45.8232 42.9682 44.0579 45.634 44.3094 48.4111C44.5864 51.4702 47.141 53.1396 50.7778 51.9133C56.514 49.9791 59.528 56.6049 58.0387 62.8824Z" fill="#44D5E9"/>
<path fill-rule="evenodd" clip-rule="evenodd" d="M60.2562 61.3234C60.7345 54.3639 56.5711 48.0541 50.0426 50.3011C47.6743 51.1162 46.4401 50.293 46.282 48.5107C46.128 46.7745 47.1304 45.2292 48.4531 45.2292C52.5405 45.2292 54.5335 43.3189 54.769 40.6924C55.002 38.0954 53.8991 36.5438 49.5035 34.8314C47.8022 34.1687 47.4066 32.9873 48.1525 31.5653C48.9834 29.981 51.8036 28.9623 57.7413 28.5823C63.0591 32.5026 66.5165 38.8618 66.5165 46.0401C66.5165 52.0125 64.1232 57.418 60.2562 61.3234ZM35.1701 65.0322C28.5141 61.3885 23.9915 54.25 23.9915 46.04C23.9915 39.3606 26.985 33.3904 31.6854 29.4344C35.0388 32.8093 35.5307 35.2919 32.8697 37.9428C32.5972 38.2143 32.316 38.4838 31.7202 39.0513C28.0914 42.5282 30.7381 47.788 36.7028 49.5033C41.03 50.7477 41.3484 54.6226 37.6096 57.3838C35.2614 59.118 34.4277 62.3679 35.1701 65.0322Z" fill="#3B5AFB"/>
</g>
<defs>
<clipPath id="clip0">
<rect width="1980" height="9546" fill="white" transform="translate(-819 -4064)"/>
</clipPath>
</defs>
</svg>
