<svg width="91" height="91" viewBox="0 0 91 91" fill="none" xmlns="http://www.w3.org/2000/svg">
<rect width="91" height="91" fill="#E5E5E5"/>
<g clip-path="url(#clip0)">
<rect width="1920" height="9126" transform="translate(-792 -4064)" fill="#F8F8F8"/>
<rect x="-792" y="-671" width="1915" height="1080" fill="white"/>
<circle cx="45.3394" cy="45.7937" r="44.3552" fill="white" stroke="#E5EAF4" stroke-width="1.28968"/>
<path d="M47.2866 53.5263C47.7 53.5263 48.0351 53.1912 48.0351 52.7778C48.0351 52.3644 47.7 52.0293 47.2866 52.0293C46.8732 52.0293 46.5381 52.3644 46.5381 52.7778C46.5381 53.1912 46.8732 53.5263 47.2866 53.5263Z" fill="url(#paint0_linear)"/>
<path d="M33.064 42.2981C33.064 44.3651 34.7397 46.0407 36.8067 46.0407C38.8737 46.0407 40.5494 44.3651 40.5494 42.2981V41.5496H33.064V42.2981H33.064Z" fill="url(#paint1_linear)"/>
<path d="M42.7954 37.0583C43.2088 37.0583 43.5439 36.7232 43.5439 36.3098C43.5439 35.8964 43.2088 35.5613 42.7954 35.5613C42.382 35.5613 42.0469 35.8964 42.0469 36.3098C42.0469 36.7232 42.382 37.0583 42.7954 37.0583Z" fill="url(#paint2_linear)"/>
<path d="M49.2012 40.6513C50.489 35.1011 47.9428 29.3694 42.961 26.6043C37.9792 23.8392 31.7682 24.7105 27.7393 28.7393C23.7104 32.7681 22.8393 38.9792 25.6043 43.961C28.3693 48.9428 34.1011 51.489 39.6513 50.2012C41.0317 45.6179 44.6179 42.0318 49.2012 40.6513ZM28.573 36.3098C28.573 35.0696 29.5784 34.0642 30.8185 34.0642C32.0587 34.0642 33.0641 35.0697 33.0641 36.3098C33.0641 37.5501 32.0587 38.5554 30.8185 38.5554C29.5784 38.5554 28.573 37.55 28.573 36.3098ZM42.0467 42.2981C42.0467 45.1919 39.7007 47.5379 36.8069 47.5379C33.9131 47.5379 31.5671 45.1919 31.5671 42.2981V41.5496C31.5671 40.7228 32.2374 40.0525 33.0642 40.0525H40.5497C41.3765 40.0525 42.0467 40.7228 42.0467 41.5496V42.2981H42.0467ZM40.5496 36.3098C40.5496 35.0696 41.555 34.0642 42.7952 34.0642C44.0353 34.0642 45.0408 35.0697 45.0408 36.3098C45.0408 37.5501 44.0353 38.5554 42.7952 38.5554C41.555 38.5554 40.5496 37.55 40.5496 36.3098Z" fill="url(#paint3_linear)"/>
<path d="M30.8183 37.0583C31.2317 37.0583 31.5668 36.7232 31.5668 36.3098C31.5668 35.8964 31.2317 35.5613 30.8183 35.5613C30.4049 35.5613 30.0698 35.8964 30.0698 36.3098C30.0698 36.7232 30.4049 37.0583 30.8183 37.0583Z" fill="url(#paint4_linear)"/>
<path d="M53.275 41.5496C46.2471 41.5496 40.5498 47.2468 40.5498 54.2748C40.5498 61.3027 46.2471 67 53.275 67C60.3029 67 66.0002 61.3027 66.0002 54.2748C65.9923 47.2501 60.2996 41.5574 53.275 41.5496ZM45.0411 52.7777C45.0411 51.5374 46.0465 50.5321 47.2867 50.5321C48.5268 50.5321 49.5322 51.5375 49.5322 52.7777C49.5322 54.0178 48.5268 55.0233 47.2867 55.0233C46.0465 55.0233 45.0411 54.0178 45.0411 52.7777ZM57.7086 59.8027C56.8544 61.464 55.1431 62.5085 53.275 62.5085C51.4069 62.5085 49.6956 61.464 48.8414 59.8027C48.6894 59.4236 48.8693 58.9927 49.2457 58.8342C49.6221 58.6757 50.056 58.8482 50.2209 59.2218C50.8399 60.3273 52.008 61.012 53.2749 61.012C54.5419 61.012 55.71 60.3273 56.3289 59.2218C56.4329 58.9754 56.6603 58.803 56.9257 58.7698C57.191 58.7365 57.454 58.8474 57.6154 59.0606C57.7769 59.2738 57.8124 59.5569 57.7084 59.8034V59.8027H57.7086ZM59.2633 55.0233C58.023 55.0233 57.0177 54.0178 57.0177 52.7777C57.0177 51.5375 58.0231 50.5321 59.2633 50.5321C60.5035 50.5321 61.5089 51.5375 61.5089 52.7777C61.5089 54.0178 60.5035 55.0233 59.2633 55.0233Z" fill="url(#paint5_linear)"/>
<path d="M59.2632 53.5263C59.6765 53.5263 60.0117 53.1912 60.0117 52.7778C60.0117 52.3644 59.6765 52.0293 59.2632 52.0293C58.8498 52.0293 58.5146 52.3644 58.5146 52.7778C58.5146 53.1912 58.8498 53.5263 59.2632 53.5263Z" fill="url(#paint6_linear)"/>
<path d="M60.5961 31.3507C58.5061 28.7383 55.5007 28.7099 53.5156 29.064L53.8974 28.4913C54.1268 28.1474 54.034 27.6826 53.69 27.4531C53.3461 27.2236 52.8813 27.3165 52.6518 27.6604L51.1547 29.906C51.0445 30.0712 51.0044 30.2733 51.0433 30.4681C51.0822 30.6628 51.1968 30.8341 51.362 30.9442L53.6076 32.4413C53.8301 32.5897 54.1149 32.6082 54.3547 32.4897C54.5945 32.3712 54.7529 32.1338 54.7701 31.867C54.7874 31.6001 54.661 31.3442 54.4385 31.1958L53.523 30.5857C55.1414 30.2519 57.7246 30.1583 59.4268 32.2864C61.1544 34.4459 60.0443 39.0787 60.0331 39.1251C59.9343 39.5265 60.1796 39.932 60.5811 40.0308C60.6396 40.0449 60.6997 40.0523 60.76 40.0525C61.104 40.0523 61.4035 39.8176 61.4861 39.4836C61.5407 39.2643 62.7856 34.0882 60.5961 31.3507Z" fill="url(#paint7_linear)"/>
<path d="M36.4739 59.6404C36.13 59.411 35.6652 59.5038 35.4357 59.8477C35.2063 60.1917 35.2991 60.6565 35.643 60.886L36.5585 61.4961C34.9402 61.8292 32.3569 61.9235 30.6547 59.7954C28.9271 57.6359 30.0372 53.0031 30.0484 52.9567C30.1125 52.697 30.0331 52.423 29.8402 52.2376C29.6474 52.0523 29.3703 51.984 29.1134 52.0584C28.8565 52.1327 28.6588 52.3385 28.5947 52.5982C28.5408 52.8175 27.296 57.9937 29.4855 60.7311C30.78 62.3447 32.7597 63.2532 34.8271 63.1826C35.4098 63.1805 35.9911 63.1272 36.5644 63.0232L36.1842 63.5936C36.0358 63.8161 36.0173 64.1008 36.1358 64.3407C36.2543 64.5804 36.4917 64.7388 36.7585 64.7561C37.0254 64.7733 37.2813 64.6469 37.4297 64.4244L38.9268 62.1788C39.0369 62.0137 39.077 61.8115 39.0382 61.6167C38.9993 61.422 38.8847 61.2507 38.7194 61.1406L36.4739 59.6404Z" fill="url(#paint8_linear)"/>
</g>
<defs>
<linearGradient id="paint0_linear" x1="47.2866" y1="52.0293" x2="47.2866" y2="53.5263" gradientUnits="userSpaceOnUse">
<stop stop-color="#3FB7E7"/>
<stop offset="1" stop-color="#4DCCFF"/>
</linearGradient>
<linearGradient id="paint1_linear" x1="36.8067" y1="41.5496" x2="36.8067" y2="46.0407" gradientUnits="userSpaceOnUse">
<stop stop-color="#3FB7E7"/>
<stop offset="1" stop-color="#4DCCFF"/>
</linearGradient>
<linearGradient id="paint2_linear" x1="42.7954" y1="35.5613" x2="42.7954" y2="37.0583" gradientUnits="userSpaceOnUse">
<stop stop-color="#3FB7E7"/>
<stop offset="1" stop-color="#4DCCFF"/>
</linearGradient>
<linearGradient id="paint3_linear" x1="36.7663" y1="25" x2="36.7663" y2="50.5326" gradientUnits="userSpaceOnUse">
<stop stop-color="#3FB7E7"/>
<stop offset="1" stop-color="#4DCCFF"/>
</linearGradient>
<linearGradient id="paint4_linear" x1="30.8183" y1="35.5613" x2="30.8183" y2="37.0583" gradientUnits="userSpaceOnUse">
<stop stop-color="#3FB7E7"/>
<stop offset="1" stop-color="#4DCCFF"/>
</linearGradient>
<linearGradient id="paint5_linear" x1="53.275" y1="41.5496" x2="53.275" y2="67" gradientUnits="userSpaceOnUse">
<stop stop-color="#3FB7E7"/>
<stop offset="1" stop-color="#4DCCFF"/>
</linearGradient>
<linearGradient id="paint6_linear" x1="59.2632" y1="52.0293" x2="59.2632" y2="53.5263" gradientUnits="userSpaceOnUse">
<stop stop-color="#3FB7E7"/>
<stop offset="1" stop-color="#4DCCFF"/>
</linearGradient>
<linearGradient id="paint7_linear" x1="56.4582" y1="27.3271" x2="56.4582" y2="40.0525" gradientUnits="userSpaceOnUse">
<stop stop-color="#3FB7E7"/>
<stop offset="1" stop-color="#4DCCFF"/>
</linearGradient>
<linearGradient id="paint8_linear" x1="33.6233" y1="52.0288" x2="33.6233" y2="64.7576" gradientUnits="userSpaceOnUse">
<stop stop-color="#3FB7E7"/>
<stop offset="1" stop-color="#4DCCFF"/>
</linearGradient>
<clipPath id="clip0">
<rect width="1920" height="9126" fill="white" transform="translate(-792 -4064)"/>
</clipPath>
</defs>
</svg>
