<svg width="35" height="37" viewBox="0 0 35 37" fill="none" xmlns="http://www.w3.org/2000/svg">
<path d="M34.6787 14.8448H17.8562V21.8676H27.4664C27.052 24.1376 25.7949 26.0577 23.8998 27.344C22.2981 28.4317 20.2541 29.0749 17.8515 29.0749C13.2001 29.0749 9.26566 25.8827 7.85952 21.5933C7.50565 20.5056 7.30078 19.3423 7.30078 18.1458C7.30078 16.9493 7.50565 15.7859 7.85952 14.6982C9.27032 10.4136 13.2047 7.22143 17.8562 7.22143C20.4776 7.22143 22.8289 8.13888 24.6821 9.93596L29.8038 4.72916C26.7075 1.79708 22.6706 0 17.8562 0C10.8767 0 4.8377 4.06708 1.89969 9.99744C0.689105 12.4471 0 15.2184 0 18.1505C0 21.0826 0.689105 23.8491 1.89969 26.2989C4.8377 32.2292 10.8767 36.2963 17.8562 36.2963C22.6799 36.2963 26.7214 34.6695 29.6734 31.8982C33.0491 28.7391 35 24.0856 35 18.5572C35 17.2709 34.8883 16.0366 34.6787 14.8448Z" fill="#342D2D"/>
</svg>
