<svg width="91" height="90" viewBox="0 0 91 90" fill="none" xmlns="http://www.w3.org/2000/svg">
<rect width="91" height="90" fill="#E5E5E5"/>
<g clip-path="url(#clip0)">
<rect width="1920" height="9126" transform="translate(-137 -3705)" fill="#F8F8F8"/>
<rect x="-137" y="-312" width="1915" height="1080" fill="white"/>
<circle cx="45.0854" cy="45" r="44.3552" fill="white" stroke="#E5EAF4" stroke-width="1.28968"/>
<path d="M64.7695 24H59.7656C59.0855 24 58.5352 24.5503 58.5352 25.2305V26.4609H48.4648C47.9551 25.0318 46.6021 24 45 24C43.3979 24 42.0449 25.0318 41.5352 26.4609H31.4648V25.2305C31.4648 24.5503 30.9145 24 30.2344 24H25.2305C24.5503 24 24 24.5503 24 25.2305V30.1523C24 30.8325 24.5503 31.3828 25.2305 31.3828H30.2344C30.9145 31.3828 31.4648 30.8325 31.4648 30.1523V28.9055H36.5183C32.248 31.5732 29.4323 36.2587 29.0957 41.5067C27.6193 41.9899 26.543 43.3643 26.543 45C26.543 47.0355 28.1989 48.6914 30.2344 48.6914C32.2699 48.6914 33.9258 47.0355 33.9258 45C33.9258 43.4299 32.9364 42.095 31.5518 41.5623C31.9716 35.7114 36.0542 30.78 41.7329 29.373C42.3471 30.5606 43.5732 31.3828 45 31.3828C46.4268 31.3828 47.6529 30.5606 48.2671 29.373C53.9458 30.78 58.0284 35.7114 58.4482 41.5622C57.0636 42.095 56.0742 43.4299 56.0742 45C56.0742 47.0355 57.7301 48.6914 59.7656 48.6914C61.8011 48.6914 63.457 47.0355 63.457 45C63.457 43.3643 62.3807 41.9899 60.9043 41.5067C60.5677 36.2587 57.752 31.5896 53.4817 28.9219H58.5352V30.1523C58.5352 30.8325 59.0855 31.3828 59.7656 31.3828H64.7695C65.4497 31.3828 66 30.8325 66 30.1523V25.2305C66 24.5503 65.4497 24 64.7695 24Z" fill="url(#paint0_linear)"/>
<path d="M53.3711 64.4738C52.7275 62.5043 50.8733 60.9961 48.6912 60.9961H41.3084C39.1264 60.9961 37.2721 62.5043 36.6285 64.4738C36.3804 65.2332 37.0264 66 37.8254 66H52.1743C52.9732 66 53.6193 65.2332 53.3711 64.4738Z" fill="url(#paint1_linear)"/>
<path d="M55.8675 49.2393L46.2305 34.7837V46.4571C47.6596 46.9667 48.6914 48.3197 48.6914 49.9218C48.6914 51.9573 47.0355 53.6132 45 53.6132C42.9645 53.6132 41.3086 51.9573 41.3086 49.9218C41.3086 48.3197 42.3404 46.9667 43.7695 46.4571V34.7837L34.1325 49.2393C33.8068 49.7272 33.8717 50.3773 34.2863 50.7918C36.5452 53.0507 37.9891 55.9608 38.5464 59.0823C39.4011 58.7356 40.3308 58.5351 41.3086 58.5351H48.6914C49.6692 58.5351 50.5989 58.7355 51.4537 59.0822C52.0109 55.9605 53.4548 53.0507 55.7137 50.7918C56.1283 50.3773 56.1932 49.7272 55.8675 49.2393Z" fill="url(#paint2_linear)"/>
<path d="M45 48.6914C44.3211 48.6914 43.7695 49.243 43.7695 49.9219C43.7695 50.6008 44.3211 51.1523 45 51.1523C45.6789 51.1523 46.2305 50.6008 46.2305 49.9219C46.2305 49.243 45.6789 48.6914 45 48.6914Z" fill="url(#paint3_linear)"/>
</g>
<defs>
<linearGradient id="paint0_linear" x1="45" y1="24" x2="45" y2="48.6914" gradientUnits="userSpaceOnUse">
<stop stop-color="#3FB7E7"/>
<stop offset="1" stop-color="#4DCCFF"/>
</linearGradient>
<linearGradient id="paint1_linear" x1="44.9998" y1="60.9961" x2="44.9998" y2="66" gradientUnits="userSpaceOnUse">
<stop stop-color="#3FB7E7"/>
<stop offset="1" stop-color="#4DCCFF"/>
</linearGradient>
<linearGradient id="paint2_linear" x1="45" y1="34.7837" x2="45" y2="59.0823" gradientUnits="userSpaceOnUse">
<stop stop-color="#3FB7E7"/>
<stop offset="1" stop-color="#4DCCFF"/>
</linearGradient>
<linearGradient id="paint3_linear" x1="45" y1="48.6914" x2="45" y2="51.1523" gradientUnits="userSpaceOnUse">
<stop stop-color="#3FB7E7"/>
<stop offset="1" stop-color="#4DCCFF"/>
</linearGradient>
<clipPath id="clip0">
<rect width="1920" height="9126" fill="white" transform="translate(-137 -3705)"/>
</clipPath>
</defs>
</svg>
