<svg width="37" height="36" viewBox="0 0 37 36" fill="none" xmlns="http://www.w3.org/2000/svg">
<path id="Union" fill-rule="evenodd" clip-rule="evenodd" d="M8.87033 3.84326C8.87033 5.96584 7.09311 7.68652 4.9008 7.68652C2.70849 7.68652 0.931274 5.96584 0.931274 3.84326C0.931274 1.72069 2.70849 0 4.9008 0C7.09311 0 8.87033 1.72069 8.87033 3.84326ZM1.05884 35.8721H8.74177V10.249H1.05884V35.8721ZM29.2296 35.8721H36.9125V21.4027C36.9125 17.9411 36.1007 15.4761 34.4694 13.639C32.8483 11.8043 30.7252 11.0741 28.1002 11.0741C24.648 11.0741 22.1306 12.8113 20.5556 15.3736H20.3968L19.9281 10.249H13.8637C13.9662 12.8113 13.8637 35.8721 13.8637 35.8721H21.5467V19.8269C22.1818 17.836 23.4469 16.8418 25.4419 16.8418C27.9594 16.8418 29.2296 18.6175 29.2296 22.1842V35.8721Z" fill="#342D2D"/>
</svg>
