<svg width="91" height="90" viewBox="0 0 91 90" fill="none" xmlns="http://www.w3.org/2000/svg">
<rect width="91" height="90" fill="#E5E5E5"/>
<g clip-path="url(#clip0)">
<rect width="1920" height="9126" transform="translate(-137 -4065)" fill="#F8F8F8"/>
<rect x="-137" y="-672" width="1915" height="1080" fill="white"/>
<circle cx="45.0854" cy="45" r="44.3552" fill="white" stroke="#E5EAF4" stroke-width="1.28968"/>
<path d="M54.2514 24C52.0653 24 50.2866 25.7786 50.2866 27.9647V54.0888C50.2866 56.2749 52.0652 58.0535 54.2514 58.0535C56.4377 58.0535 58.2161 56.2749 58.2161 54.0888V27.9647C58.2161 25.7786 56.4376 24 54.2514 24Z" fill="url(#paint0_linear)"/>
<path d="M24.3213 33.2413V35.0506H19.5842C18.7093 35.0506 18 35.7599 18 36.6348V45.005C18 45.8799 18.7093 46.5892 19.5842 46.5892H24.3213V48.812C24.3213 49.5616 24.8466 50.2086 25.5803 50.3625L28.8643 51.0515V62.278C28.8643 64.0144 30.0451 65.504 31.7357 65.9004C32.0204 65.9671 32.3076 65.9999 32.5922 65.9999C33.421 65.9999 34.2294 65.7221 34.8961 65.1936C35.7917 64.4837 36.3054 63.4209 36.3054 62.278V60.2148H36.3582C40.0296 60.2148 43.1115 57.642 43.8955 54.2046L47.1182 54.8807V27.1726L25.5803 31.6907C24.8466 31.8447 24.3213 32.4917 24.3213 33.2413ZM36.3055 52.6125L40.7935 53.5539C40.311 55.5551 38.5056 57.0463 36.3583 57.0463H36.3055V52.6125Z" fill="url(#paint1_linear)"/>
<path d="M65.1355 30.5254C65.4908 30.5254 65.8483 30.4065 66.1436 30.1625L69.3281 27.5318C70.0027 26.9746 70.0977 25.976 69.5405 25.3014C68.9832 24.6268 67.9847 24.5317 67.3101 25.089L64.1256 27.7197C63.451 28.2769 63.356 29.2755 63.9132 29.9501C64.2265 30.3293 64.6792 30.5254 65.1355 30.5254Z" fill="url(#paint2_linear)"/>
<path d="M69.3281 54.5218L66.1436 51.8911C65.4692 51.334 64.4705 51.4291 63.9132 52.1035C63.3559 52.7781 63.4511 53.7766 64.1256 54.3339L67.3101 56.9646C67.6054 57.2086 67.9628 57.3275 68.3182 57.3275C68.7743 57.3275 69.2272 57.1314 69.5405 56.7522C70.0977 56.0776 70.0025 55.0791 69.3281 54.5218Z" fill="url(#paint3_linear)"/>
<path d="M70.4909 39.4424H63.7688C62.8939 39.4424 62.1846 40.1517 62.1846 41.0266C62.1846 41.9015 62.8939 42.6109 63.7688 42.6109H70.4909C71.3659 42.6109 72.0752 41.9015 72.0752 41.0266C72.0752 40.1517 71.3659 39.4424 70.4909 39.4424Z" fill="url(#paint4_linear)"/>
</g>
<defs>
<linearGradient id="paint0_linear" x1="54.2514" y1="24" x2="54.2514" y2="58.0535" gradientUnits="userSpaceOnUse">
<stop stop-color="#3FB7E7"/>
<stop offset="1" stop-color="#4DCCFF"/>
</linearGradient>
<linearGradient id="paint1_linear" x1="32.5591" y1="27.1726" x2="32.5591" y2="65.9999" gradientUnits="userSpaceOnUse">
<stop stop-color="#3FB7E7"/>
<stop offset="1" stop-color="#4DCCFF"/>
</linearGradient>
<linearGradient id="paint2_linear" x1="66.7269" y1="24.7261" x2="66.7269" y2="30.5254" gradientUnits="userSpaceOnUse">
<stop stop-color="#3FB7E7"/>
<stop offset="1" stop-color="#4DCCFF"/>
</linearGradient>
<linearGradient id="paint3_linear" x1="66.7268" y1="51.5283" x2="66.7268" y2="57.3275" gradientUnits="userSpaceOnUse">
<stop stop-color="#3FB7E7"/>
<stop offset="1" stop-color="#4DCCFF"/>
</linearGradient>
<linearGradient id="paint4_linear" x1="67.1299" y1="39.4424" x2="67.1299" y2="42.6109" gradientUnits="userSpaceOnUse">
<stop stop-color="#3FB7E7"/>
<stop offset="1" stop-color="#4DCCFF"/>
</linearGradient>
<clipPath id="clip0">
<rect width="1920" height="9126" fill="white" transform="translate(-137 -4065)"/>
</clipPath>
</defs>
</svg>
