<svg width="91" height="91" viewBox="0 0 91 91" fill="none" xmlns="http://www.w3.org/2000/svg">
<rect width="91" height="91" fill="#E5E5E5"/>
<g clip-path="url(#clip0)">
<rect width="1980" height="9546" transform="translate(-1423 -4064)" fill="#F8F8F8"/>
<rect x="-1423" y="-671" width="1978" height="1080" fill="white"/>
<circle cx="45.7861" cy="45.7937" r="44.3552" fill="white" stroke="#E5EAF4" stroke-width="1.28968"/>
<path fill-rule="evenodd" clip-rule="evenodd" d="M24.5239 45.7938C24.5239 57.5367 34.0435 67.0563 45.7864 67.0563C57.5294 67.0563 67.0489 57.5367 67.0489 45.7938C67.0489 34.0508 57.5294 24.5312 45.7864 24.5312C34.0435 24.5312 24.5239 34.0508 24.5239 45.7938ZM30.5987 45.7937C30.5987 54.1816 37.3984 60.9812 45.7862 60.9812C54.174 60.9812 60.9737 54.1816 60.9737 45.7937C60.9737 37.4059 54.174 30.6062 45.7862 30.6062C37.3984 30.6062 30.5987 37.4059 30.5987 45.7937Z" fill="#3B5AFB"/>
<path fill-rule="evenodd" clip-rule="evenodd" d="M58.9485 45.7938C58.9485 53.0633 53.0555 58.9563 45.786 58.9563C38.5166 58.9563 32.6235 53.0633 32.6235 45.7938C32.6235 38.5244 38.5166 32.6313 45.786 32.6313C53.0555 32.6313 58.9485 38.5244 58.9485 45.7938ZM49.7411 40.7311H46.7986V39.7186C46.7986 39.1594 46.3453 38.7061 45.7861 38.7061C45.2269 38.7061 44.7736 39.1594 44.7736 39.7186V40.7311H43.7893C42.1118 40.7311 40.7518 42.0911 40.7518 43.7686V44.7827C40.7518 46.4602 42.1118 47.8202 43.7893 47.8202H47.8111C48.3703 47.8202 48.8236 48.2735 48.8236 48.8327V49.8436C48.8236 50.4028 48.3703 50.8561 47.8111 50.8561H42.7734C42.7317 50.3496 42.3152 49.9442 41.7951 49.9284C41.2362 49.9114 40.7693 50.3507 40.7523 50.9096L40.7241 51.8379C40.7067 52.4088 41.1649 52.8811 41.7361 52.8811H44.7736V53.8759C44.7736 54.4351 45.2269 54.8884 45.7861 54.8884C46.3453 54.8884 46.7986 54.4351 46.7986 53.8759V52.8811H47.8111C49.4887 52.8811 50.8486 51.5212 50.8486 49.8436V48.8327C50.8486 47.1551 49.4887 45.7952 47.8111 45.7952H43.7893C43.2302 45.7952 42.7768 45.3419 42.7768 44.7827V43.7686C42.7768 43.2094 43.2302 42.7561 43.7893 42.7561H48.7587C48.8686 43.1965 49.2668 43.5227 49.7411 43.5227C50.3003 43.5227 50.7536 43.0694 50.7536 42.5102V41.7436C50.7536 41.1844 50.3003 40.7311 49.7411 40.7311Z" fill="#44D5E9"/>
</g>
<defs>
<clipPath id="clip0">
<rect width="1980" height="9546" fill="white" transform="translate(-1423 -4064)"/>
</clipPath>
</defs>
</svg>
