<svg width="90" height="90" viewBox="0 0 90 90" fill="none" xmlns="http://www.w3.org/2000/svg">
<rect width="90" height="90" fill="#E5E5E5"/>
<g clip-path="url(#clip0)">
<rect width="1980" height="9546" transform="translate(-164 -4065)" fill="#F8F8F8"/>
<rect x="-164" y="-672" width="1978" height="1080" fill="white"/>
<circle cx="45" cy="45" r="44.3552" fill="white" stroke="#E5EAF4" stroke-width="1.28968"/>
<path fill-rule="evenodd" clip-rule="evenodd" d="M27.7878 62.2124L62.2125 57.9207L55.7305 34.2166L29.9451 27.7874L27.7878 62.2124ZM30.9186 58.8885L32.6375 31.459L53.3662 36.6275L58.5128 55.4483L30.9186 58.8885Z" fill="#44D5E9"/>
<path fill-rule="evenodd" clip-rule="evenodd" d="M27.7359 29.2155C27.7359 31.1225 29.2819 32.6685 31.1888 32.6685C33.0958 32.6685 34.6417 31.1225 34.6417 29.2155C34.6417 27.3084 33.0958 25.7625 31.1888 25.7625C29.2819 25.7625 27.7359 27.3084 27.7359 29.2155ZM51.4129 35.1351C51.4129 37.0421 52.9589 38.5881 54.8658 38.5881C56.7728 38.5881 58.3187 37.0421 58.3187 35.1351C58.3187 33.2281 56.7728 31.6821 54.8658 31.6821C52.9589 31.6821 51.4129 33.2281 51.4129 35.1351ZM29.2157 64.239C27.3087 64.239 25.7628 62.6931 25.7628 60.786C25.7628 58.879 27.3087 57.333 29.2157 57.333C31.1227 57.333 32.6686 58.879 32.6686 60.786C32.6686 62.6931 31.1227 64.239 29.2157 64.239ZM57.3321 56.8395C57.3321 58.7466 58.878 60.2925 60.7849 60.2925C62.6919 60.2925 64.2378 58.7466 64.2378 56.8395C64.2378 54.9325 62.6919 53.3865 60.7849 53.3865C58.878 53.3865 57.3321 54.9325 57.3321 56.8395Z" fill="#3B5AFB"/>
</g>
<defs>
<clipPath id="clip0">
<rect width="1980" height="9546" fill="white" transform="translate(-164 -4065)"/>
</clipPath>
</defs>
</svg>
