<svg width="91" height="90" viewBox="0 0 91 90" fill="none" xmlns="http://www.w3.org/2000/svg">
<rect width="91" height="90" fill="#E5E5E5"/>
<g clip-path="url(#clip0)">
<rect width="1920" height="9126" transform="translate(-1396 -3705)" fill="#F8F8F8"/>
<rect x="-1396" y="-312" width="1915" height="1080" fill="white"/>
<circle cx="45.8716" cy="45" r="44.3552" fill="white" stroke="#E5EAF4" stroke-width="1.28968"/>
<path d="M63.0625 26.8875H47.3125V25.3125C47.3125 24.5687 46.7437 24 46 24C45.2562 24 44.6875 24.5687 44.6875 25.3125V26.8875H28.9375C28.1938 26.8875 27.625 27.4563 27.625 28.2V50.2063H64.375V28.2C64.375 27.4563 63.8062 26.8875 63.0625 26.8875Z" fill="url(#paint0_linear)"/>
<path d="M65.6875 52.3936H26.3125C25.6125 52.3936 25 53.0061 25 53.7061C25 54.4498 25.5687 55.0185 26.3125 55.0185H43.3312L35.5875 63.1998C35.1062 63.7248 35.1062 64.556 35.6313 65.0373C36.1562 65.5185 36.9875 65.5185 37.4688 64.9935L44.6875 57.381V64.6873C44.6875 65.431 45.2563 65.9998 46 65.9998C46.7437 65.9998 47.3125 65.431 47.3125 64.6873V57.381L54.5312 64.9935C55.0125 65.5185 55.8438 65.5623 56.3687 65.0373C56.8938 64.556 56.9375 63.7248 56.4125 63.1998L48.6688 55.0185H65.6875C66.4313 55.0185 67 54.4498 67 53.7061C67 52.9623 66.4313 52.3936 65.6875 52.3936Z" fill="url(#paint1_linear)"/>
</g>
<defs>
<linearGradient id="paint0_linear" x1="46" y1="24" x2="46" y2="50.2063" gradientUnits="userSpaceOnUse">
<stop stop-color="#3FB7E7"/>
<stop offset="1" stop-color="#4DCCFF"/>
</linearGradient>
<linearGradient id="paint1_linear" x1="46" y1="52.3936" x2="46" y2="65.9998" gradientUnits="userSpaceOnUse">
<stop stop-color="#3FB7E7"/>
<stop offset="1" stop-color="#4DCCFF"/>
</linearGradient>
<clipPath id="clip0">
<rect width="1920" height="9126" fill="white" transform="translate(-1396 -3705)"/>
</clipPath>
</defs>
</svg>
