<svg width="41" height="33" viewBox="0 0 41 33" fill="none" xmlns="http://www.w3.org/2000/svg">
<path d="M36.1942 5.22766C38.0345 4.10664 39.253 2.57654 39.8498 0.630574C38.169 1.53261 36.3653 2.18808 34.495 2.57654C32.8938 0.867887 30.8667 0 28.4365 0C26.0609 0 24.0543 0.827204 22.4166 2.43641C21.6258 3.20057 21.0005 4.11691 20.5791 5.1293C20.1577 6.14169 19.949 7.2288 19.9659 8.32402C19.9659 9.0224 20.0547 9.64619 20.2324 10.1751C13.2263 9.93775 7.42742 7.05383 2.85845 1.50298C2.08405 2.86131 1.69685 4.2445 1.69685 5.67516C1.69685 8.61557 2.94728 10.9458 5.44359 12.6567C4.02005 12.5369 2.76507 12.1798 1.69685 11.5944C1.69685 13.6941 2.31865 15.4479 3.56452 16.9916C4.77477 18.4958 6.48032 19.5288 8.38176 19.9094C7.67113 20.0902 6.92178 20.1761 6.15194 20.1761C5.44131 20.1761 4.93795 20.1173 4.63958 19.9885C5.16343 21.6994 6.15194 23.0871 7.58002 24.1494C8.9918 25.2131 10.7091 25.8014 12.4815 25.8286C9.4477 28.1905 5.97883 29.3589 2.05444 29.3589C1.09327 29.3589 0.412255 29.3454 0 29.2731C3.86517 31.7637 8.16766 33 12.9279 33C17.7998 33 22.1046 31.775 25.8513 29.325C29.5981 26.8886 32.3631 23.8827 34.1397 20.3433C35.8966 16.9186 36.8113 13.1298 36.8091 9.28683V8.22909C38.4467 7.03106 39.8643 5.56241 41 3.88741C39.4662 4.54705 37.8497 4.99788 36.1942 5.22766Z" fill="#342D2D"/>
</svg>
