<svg width="91" height="91" viewBox="0 0 91 91" fill="none" xmlns="http://www.w3.org/2000/svg">
<rect width="91" height="91" fill="#E5E5E5"/>
<g clip-path="url(#clip0)">
<rect width="1920" height="9126" transform="translate(-1396 -4064)" fill="#F8F8F8"/>
<rect x="-1396" y="-671" width="1915" height="1080" fill="white"/>
<circle cx="45.8716" cy="45.7937" r="44.3552" fill="white" stroke="#E5EAF4" stroke-width="1.28968"/>
<g clip-path="url(#clip1)">
<path d="M70.9643 24.0324C67.9576 23.8646 64.5763 25.4603 62.0268 27.4452C61.9866 27.4763 61.9473 27.5059 61.9086 27.5394C61.8292 27.6011 61.7513 27.6647 61.6749 27.7279C61.5984 27.791 61.5295 27.8478 61.4595 27.9085C61.4098 27.9509 61.3602 27.9938 61.3106 28.0377C61.261 28.0816 61.2004 28.133 61.1473 28.1823C61.0942 28.2316 61.0302 28.2869 60.9731 28.3407C60.8773 28.43 60.781 28.5217 60.6877 28.613C60.6306 28.6688 60.5721 28.7255 60.5165 28.7823C60.4609 28.839 60.4018 28.8972 60.3463 28.9554C60.2348 29.0715 60.1247 29.189 60.0162 29.3077C59.8528 29.487 59.6939 29.6694 59.5398 29.8549C59.1285 30.3511 58.7462 30.8703 58.3948 31.4101C57.9132 32.1536 57.4925 32.9343 57.1366 33.7448C56.0333 36.2611 55.9137 39.0379 54.9415 41.5897C53.3726 45.708 50.4042 49.5131 45.7101 50.0084C44.6711 50.1223 43.6198 50.0386 42.6122 49.7617C41.3855 49.4205 40.2601 48.7893 39.3321 47.9219C38.2457 46.9203 37.4039 45.6449 36.6947 44.2525C35.31 41.5374 33.8732 38.8479 32.5004 36.1269C32.3912 35.9108 32.2827 35.6942 32.1749 35.4771C31.5919 34.3068 30.9938 33.1443 30.3807 31.9898C26.4544 24.6018 21.0005 24.1942 21.0005 24.1942L28.456 36.9163L35.6629 49.2175L36.2406 50.2043L46.0844 67.0003L56.5267 49.18L57.5342 47.4596L70.9643 24.0324Z" fill="url(#paint0_linear)"/>
<path d="M27.2592 27.6545L27.2627 27.6585C28.3253 28.7351 29.4008 30.1447 30.3815 31.9895C30.4953 32.2033 30.6071 32.4154 30.717 32.6259C31.2133 33.5713 31.6995 34.5216 32.1756 35.4768C32.2832 35.6938 32.3917 35.9104 32.5012 36.1266C33.873 38.8476 35.3098 41.5371 36.6935 44.2507C37.4027 45.6431 38.2445 46.9185 39.3309 47.9201C40.2589 48.7875 41.3843 49.4187 42.611 49.7599C43.6186 50.0368 44.6699 50.1205 45.709 50.0066C50.404 49.5132 53.3724 45.7062 54.9403 41.5879C55.7378 39.4935 55.9622 37.249 56.6277 35.1205C56.6588 34.9828 56.6981 34.8471 56.7453 34.714C57.1665 33.553 57.7202 32.4438 58.3956 31.4083C58.745 30.8672 59.1273 30.3478 59.5405 29.8531C59.6939 29.6676 59.8532 29.4845 60.0165 29.3064C60.124 29.1867 60.2339 29.0694 60.3461 28.9546C60.4016 28.8964 60.4587 28.8397 60.5163 28.7814C60.5719 28.7247 60.6304 28.668 60.6875 28.6122C60.7808 28.5209 60.8771 28.4292 60.9729 28.3399C61.03 28.2861 61.0885 28.2343 61.1471 28.1815C61.2017 28.1321 61.2563 28.0828 61.3104 28.0374C61.36 27.9935 61.4096 27.9506 61.4593 27.9081C61.5307 27.8465 61.6017 27.7858 61.6742 27.7281C61.7064 27.7009 61.7377 27.6738 61.77 27.6481C61.8156 27.6106 61.8623 27.5746 61.9074 27.5396C61.9342 27.5164 61.9615 27.4947 61.9893 27.4735L62.0256 27.4453C62.3318 27.206 62.6549 26.9697 62.9914 26.7408C65.393 25.0983 68.3222 23.885 70.9631 24.0326C70.9745 24.0326 70.9874 24.0326 70.9993 24.0301C70.6773 24.011 70.3546 24.0011 70.031 24.0005C64.9414 24.0059 59.8934 26.5444 56.922 30.6613C55.8912 32.0921 55.1055 33.6749 54.2618 35.2197C53.5269 36.566 52.7449 37.886 51.9158 39.1797C51.1341 40.3978 50.3603 41.8795 49.2412 42.8155C48.5359 43.4075 47.6222 43.6221 46.716 43.6221C45.8859 43.6224 45.0736 43.3827 44.3781 42.9322C43.6827 42.4816 43.134 41.8397 42.7991 41.0846L38.1264 33.1213C35.4895 27.7261 29.9239 24.0054 23.4853 24.0054C22.6525 24.0052 21.821 24.068 20.9978 24.1934C20.9978 24.1934 24.0685 24.4228 27.2592 27.6545Z" fill="url(#paint1_linear)"/>
</g>
</g>
<defs>
<linearGradient id="paint0_linear" x1="27.7096" y1="15.666" x2="60.4243" y2="47.7332" gradientUnits="userSpaceOnUse">
<stop offset="0.23" stop-color="#4372B8"/>
<stop offset="0.86" stop-color="#42C7F1"/>
</linearGradient>
<linearGradient id="paint1_linear" x1="66423.5" y1="11150" x2="47905.5" y2="36346.1" gradientUnits="userSpaceOnUse">
<stop offset="0.23" stop-color="#4372B8"/>
<stop offset="0.86" stop-color="#42C7F1"/>
</linearGradient>
<clipPath id="clip0">
<rect width="1920" height="9126" fill="white" transform="translate(-1396 -4064)"/>
</clipPath>
<clipPath id="clip1">
<rect width="50" height="43" fill="white" transform="translate(21 24)"/>
</clipPath>
</defs>
</svg>
